<?xml version="1.0" encoding="UTF-8"?>
<!DOCTYPE svg PUBLIC "-//W3C//DTD SVG 1.1//EN" "http://www.w3.org/Graphics/SVG/1.1/DTD/svg11.dtd">
<!-- Creator: CorelDRAW 2017 -->
<svg xmlns="http://www.w3.org/2000/svg" xml:space="preserve" width="42.333mm" height="24.347mm" version="1.1" style="shape-rendering:geometricPrecision; text-rendering:geometricPrecision; image-rendering:optimizeQuality; fill-rule:evenodd; clip-rule:evenodd"
viewBox="0 0 4233 2435"
 xmlns:xlink="http://www.w3.org/1999/xlink">
 <defs>
  <style type="text/css">
   <![CDATA[
    .fil0 {fill:#222222}
   ]]>
  </style>
 </defs>
 <g id="Layer_x0020_1">
  <metadata id="CorelCorpID_0Corel-Layer"/>
  <path class="fil0" d="M2819 1142c12,-72 85,-167 123,-216 12,-16 41,-43 56,-57 101,-96 175,-15 18,168 -24,28 -55,41 -88,62 -23,14 -78,39 -108,43zm-777 -992c120,-10 233,8 345,32 102,22 208,46 309,72 203,52 407,98 611,148 102,25 207,47 310,71 191,44 396,90 454,306 24,88 16,261 15,359 -2,125 4,251 0,376 -2,58 -5,118 -23,169 -31,90 -98,157 -182,199 -43,21 -91,37 -140,51 -97,27 -207,50 -307,72 -205,45 -410,98 -612,147 -157,39 -476,120 -625,133 -128,11 -226,-5 -344,-30 -198,-41 -418,-98 -616,-145l-614 -146c-100,-24 -207,-45 -289,-89 -224,-120 -183,-350 -183,-576 0,-127 -2,-254 -1,-381 1,-98 13,-185 71,-262l46 -49c36,-27 41,-33 87,-56 89,-43 342,-97 447,-122 103,-25 205,-48 308,-73 102,-25 205,-46 306,-72 145,-38 490,-122 628,-133zm-2043 1322c1,166 14,291 116,412 37,44 79,80 128,110 134,81 428,135 592,175 206,49 413,99 620,147 104,24 206,49 311,72 111,24 217,47 337,47 204,1 453,-66 652,-116 206,-51 413,-98 620,-147 103,-25 207,-49 310,-74 98,-24 206,-53 286,-98 45,-25 80,-53 112,-81 120,-108 151,-252 149,-423l0 -461c-1,-210 10,-381 -166,-534l-39 -31c-90,-69 -229,-106 -345,-134 -103,-25 -206,-50 -310,-74 -105,-24 -208,-49 -312,-74 -103,-25 -208,-48 -310,-74 -102,-26 -207,-51 -310,-73 -274,-60 -411,-53 -679,7 -209,46 -413,97 -621,146 -103,24 -207,50 -310,73 -104,23 -207,48 -310,74 -107,27 -198,51 -281,102 -76,46 -141,113 -185,198 -50,97 -55,208 -55,328l0 501zm1170 -434c26,-57 167,-243 204,-289l139 -155c23,-25 80,-73 113,-86 -4,21 -48,120 -59,145l-191 419c-80,-4 -140,-22 -207,-34zm-144 -38c-44,-3 -88,-15 -132,-22 -47,-7 -99,-6 -146,3 -166,31 -254,195 -160,233 27,11 38,-9 51,-21 43,-43 91,-69 158,-81 31,-6 115,-15 139,2 -12,28 -83,116 -106,139l-39 43c-35,39 -85,84 -132,114 -54,34 -114,61 -183,63 -68,2 -86,-18 -118,-48 -53,-51 -117,109 -22,188 64,54 184,43 264,11 39,-15 75,-36 106,-57 38,-26 106,-77 134,-111 12,-15 28,-26 41,-41 87,-100 109,-127 182,-231 6,-9 10,-15 17,-24 7,-9 13,-16 19,-23 21,5 37,8 56,10 53,7 126,19 178,22 -16,83 -128,226 -27,305 42,33 116,27 169,9 203,-68 296,-263 391,-439 24,-44 47,-99 72,-135 25,-6 89,14 109,23 3,31 -34,88 -47,109 -52,84 -147,219 -143,323 7,159 210,107 291,35 12,-11 28,-26 40,-38 12,-11 29,-32 44,-39 -4,61 -5,107 39,131 41,23 102,17 146,1 73,-26 141,-101 196,-155 3,35 12,62 29,87 14,21 35,43 59,56 53,29 137,31 203,20 100,-16 201,-85 273,-153 6,-6 12,-10 19,-18 -5,58 -12,112 25,146 35,31 89,39 144,23 99,-28 158,-118 204,-164 -10,54 -48,141 -75,177 -31,42 -78,87 -138,113 -129,56 -287,60 -440,62 -322,4 -646,-25 -967,-36 -277,-9 -684,-39 -945,28 -86,22 -197,59 -249,127 -15,20 -33,61 -32,93 1,36 30,70 61,41 29,-27 33,-34 71,-55 244,-130 857,-119 1136,-111 322,9 643,31 965,36 303,4 552,-13 704,-297 29,-54 50,-118 75,-176 25,-59 50,-117 75,-176 29,-68 140,-365 137,-369 -1,-2 -43,-12 -75,-13 -17,0 -72,0 -82,10 -10,9 -48,105 -56,127 -36,91 -77,172 -127,239 -49,65 -104,149 -170,196 -72,51 -78,3 -54,-61 19,-49 92,-215 113,-256 20,-41 40,-83 57,-126 9,-22 17,-42 25,-65 11,-33 14,-48 -21,-57 -30,-8 -91,-9 -122,1 -21,7 -68,127 -79,151 -31,68 -78,193 -121,245 -21,24 -45,47 -69,69l-37 33c-29,24 -61,47 -96,65 -42,21 -91,41 -146,38 -52,-3 -94,-36 -96,-88 -1,-37 15,-38 46,-45 116,-26 195,-53 285,-126 10,-8 15,-14 24,-23l33 -35c17,-21 32,-43 44,-71 21,-47 28,-105 3,-154 -45,-87 -170,-83 -268,-41 -45,19 -106,60 -135,93 -14,16 -32,30 -46,47 -37,48 -63,76 -96,135 -49,89 -20,83 -95,178 -30,39 -104,131 -161,109 -9,-66 71,-224 98,-280 42,-87 78,-176 119,-262 37,-77 84,-186 115,-266 19,-49 40,-111 -17,-135 -26,-11 -196,-11 -184,41 7,27 49,11 12,105 -18,45 -39,88 -58,133 -38,89 -76,179 -115,266 -29,65 -57,134 -89,196 -16,31 -40,56 -62,81 -37,43 -76,82 -126,112 -25,15 -69,29 -71,5 -3,-51 41,-136 63,-172l91 -145c28,-43 83,-121 11,-155 -52,-25 -162,-12 -197,-40 8,-33 34,-65 8,-102 -18,-26 -55,-38 -98,-25 -59,17 -126,84 -82,158 20,34 24,12 -13,87 -30,60 -62,118 -95,175 -45,76 -105,175 -176,228 -117,87 -65,-56 -43,-113 98,-256 207,-508 321,-754 12,-27 40,-69 12,-94 -25,-23 -78,-22 -116,-18 -109,13 -192,71 -272,131 -35,26 -164,160 -201,205 -58,72 -119,152 -175,228 -18,24 -39,51 -55,80z"/>
 </g>
</svg>
